<svg xmlns="http://www.w3.org/2000/svg" viewBox="0 0 680 520" style="font-family: -apple-system, BlinkMacSystemFont, 'Segoe UI', 'PingFang SC', 'Hiragino Sans GB', 'Microsoft YaHei', sans-serif; background: #ffffff;">
  <defs>
    <marker id="arrow-s2" markerWidth="8" markerHeight="8" refX="7" refY="2.5" orient="auto" markerUnits="strokeWidth">
      <path d="M0,0 L0,5 L7,2.5 z" fill="#52c41a"/>
    </marker>
    <marker id="arrow-s3" markerWidth="8" markerHeight="8" refX="7" refY="2.5" orient="auto" markerUnits="strokeWidth">
      <path d="M0,0 L0,5 L7,2.5 z" fill="#f5222d"/>
    </marker>
    <marker id="arrow-a1" markerWidth="8" markerHeight="8" refX="7" refY="2.5" orient="auto" markerUnits="strokeWidth">
      <path d="M0,0 L0,5 L7,2.5 z" fill="#fa8c16"/>
    </marker>
    <marker id="arrow-cli" markerWidth="8" markerHeight="8" refX="7" refY="2.5" orient="auto" markerUnits="strokeWidth">
      <path d="M0,0 L0,5 L7,2.5 z" fill="#8c8c8c"/>
    </marker>
  </defs>

  <pattern id="grid" width="30" height="30" patternUnits="userSpaceOnUse">
    <path d="M 30 0 L 0 0 0 30" fill="none" stroke="#f5f5f5" stroke-width="1"/>
  </pattern>
  <rect width="680" height="520" fill="url(#grid)"/>

  <text x="340" y="22" text-anchor="middle" font-size="15" font-weight="600" fill="#262626">Skill/Agent 实现 — CLI 工具与前置条件依赖全景</text>
  <text x="340" y="40" text-anchor="middle" font-size="10" fill="#8c8c8c">不含 S1 MVPS 智能映射，聚焦 S2 / S3 / A1</text>

  <text x="12" y="62" font-size="9" fill="#8c8c8c" font-weight="600">Skill / Agent 层</text>
  <text x="12" y="132" font-size="9" fill="#8c8c8c" font-weight="600">CLI 工具层</text>
  <text x="12" y="262" font-size="9" fill="#8c8c8c" font-weight="600">前置条件层</text>

  <g transform="translate(80, 55)">
    <rect x="0" y="0" width="160" height="50" rx="6" fill="#f6ffed" stroke="#b7eb8f" stroke-width="1.5"/>
    <text x="80" y="22" text-anchor="middle" font-size="12" font-weight="600" fill="#135200">S2 定点供应商同步</text>
    <text x="80" y="39" text-anchor="middle" font-size="9" fill="#389e0d">Agent · 每日 01:00</text>
  </g>

  <g transform="translate(260, 55)">
    <rect x="0" y="0" width="160" height="50" rx="6" fill="#fff1f0" stroke="#ffa39e" stroke-width="1.5"/>
    <text x="80" y="22" text-anchor="middle" font-size="12" font-weight="600" fill="#820014">S3 变更影响分析</text>
    <text x="80" y="39" text-anchor="middle" font-size="9" fill="#cf1322">Skill · 变更触发</text>
  </g>

  <g transform="translate(440, 55)">
    <rect x="0" y="0" width="160" height="50" rx="6" fill="#fff7e6" stroke="#ffd591" stroke-width="1.5"/>
    <text x="80" y="22" text-anchor="middle" font-size="12" font-weight="600" fill="#ad6800">A1 数据质量巡检</text>
    <text x="80" y="39" text-anchor="middle" font-size="9" fill="#d48806">Agent · 每日 02:00</text>
  </g>

  <text x="15" y="150" font-size="8" fill="#389e0d" font-weight="600">P0</text>
  <text x="15" y="160" font-size="7" fill="#8c8c8c">先开发</text>

  <g transform="translate(50, 135)">
    <rect x="0" y="0" width="100" height="40" rx="5" fill="#e6f7ff" stroke="#91d5ff" stroke-width="1"/>
    <text x="50" y="17" text-anchor="middle" font-size="11" font-weight="600" fill="#0050b3">cat-cli</text>
    <text x="50" y="31" text-anchor="middle" font-size="8" fill="#1890ff">品类操作</text>
  </g>

  <g transform="translate(160, 135)">
    <rect x="0" y="0" width="100" height="40" rx="5" fill="#e6f7ff" stroke="#91d5ff" stroke-width="1"/>
    <text x="50" y="17" text-anchor="middle" font-size="11" font-weight="600" fill="#0050b3">mvps-cli</text>
    <text x="50" y="31" text-anchor="middle" font-size="8" fill="#1890ff">映射操作</text>
  </g>

  <g transform="translate(270, 135)">
    <rect x="0" y="0" width="100" height="40" rx="5" fill="#e6f7ff" stroke="#91d5ff" stroke-width="1"/>
    <text x="50" y="17" text-anchor="middle" font-size="11" font-weight="600" fill="#0050b3">supplier-cli</text>
    <text x="50" y="31" text-anchor="middle" font-size="8" fill="#1890ff">供应商</text>
  </g>

  <g transform="translate(380, 135)">
    <rect x="0" y="0" width="100" height="40" rx="5" fill="#e6f7ff" stroke="#91d5ff" stroke-width="1"/>
    <text x="50" y="17" text-anchor="middle" font-size="11" font-weight="600" fill="#0050b3">quality-cli</text>
    <text x="50" y="31" text-anchor="middle" font-size="8" fill="#1890ff">质量校验</text>
  </g>

  <g transform="translate(490, 135)">
    <rect x="0" y="0" width="100" height="40" rx="5" fill="#e6f7ff" stroke="#91d5ff" stroke-width="1"/>
    <text x="50" y="17" text-anchor="middle" font-size="11" font-weight="600" fill="#0050b3">sync-cli</text>
    <text x="50" y="31" text-anchor="middle" font-size="8" fill="#1890ff">跨系统同步</text>
  </g>

  <text x="15" y="215" font-size="8" fill="#fa8c16" font-weight="600">P1</text>
  <text x="15" y="225" font-size="7" fill="#8c8c8c">并行</text>

  <g transform="translate(100, 195)">
    <rect x="0" y="0" width="100" height="40" rx="5" fill="#f6ffed" stroke="#b7eb8f" stroke-width="1"/>
    <text x="50" y="17" text-anchor="middle" font-size="11" font-weight="600" fill="#135200">todo-cli</text>
    <text x="50" y="31" text-anchor="middle" font-size="8" fill="#389e0d">待办管理</text>
  </g>

  <g transform="translate(210, 195)">
    <rect x="0" y="0" width="100" height="40" rx="5" fill="#f6ffed" stroke="#b7eb8f" stroke-width="1"/>
    <text x="50" y="17" text-anchor="middle" font-size="11" font-weight="600" fill="#135200">report-cli</text>
    <text x="50" y="31" text-anchor="middle" font-size="8" fill="#389e0d">报告生成</text>
  </g>

  <g transform="translate(320, 195)">
    <rect x="0" y="0" width="100" height="40" rx="5" fill="#f6ffed" stroke="#b7eb8f" stroke-width="1"/>
    <text x="50" y="17" text-anchor="middle" font-size="11" font-weight="600" fill="#135200">audit-cli</text>
    <text x="50" y="31" text-anchor="middle" font-size="8" fill="#389e0d">审计日志</text>
  </g>

  <g transform="translate(430, 195)">
    <rect x="0" y="0" width="100" height="40" rx="5" fill="#f6ffed" stroke="#b7eb8f" stroke-width="1"/>
    <text x="50" y="17" text-anchor="middle" font-size="11" font-weight="600" fill="#135200">notify-cli</text>
    <text x="50" y="31" text-anchor="middle" font-size="8" fill="#389e0d">通知推送</text>
  </g>

  <g transform="translate(50, 270)">
    <rect x="0" y="0" width="280" height="220" rx="6" fill="#fafafa" stroke="#d9d9d9" stroke-width="1"/>
    <text x="12" y="20" font-size="11" font-weight="600" fill="#262626">数据库（已有 + 需新建）</text>
    <text x="12" y="40" font-size="8" fill="#595959" font-weight="600">已有：</text>
    <text x="18" y="55" font-size="8" fill="#595959">CATEGORY · MVPS_MAPPING · SOR</text>
    <text x="18" y="67" font-size="8" fill="#595959">POOL_ADMISSION · DESIGNATED_SUPPLIER</text>
    <text x="12" y="85" font-size="8" fill="#cf1322" font-weight="600">需新建：</text>
    <text x="18" y="98" font-size="8" fill="#595959">CATEGORY_PERSONNEL（品类-人员）</text>
    <text x="18" y="110" font-size="8" fill="#595959">TODO_TASK · AUDIT_LOG · SYNC_LOG</text>
    <text x="12" y="128" font-size="8" fill="#d48806" font-weight="600">需改字段：</text>
    <text x="18" y="141" font-size="8" fill="#595959">DESIGNATED_SUPPLIER + data_source</text>
    <text x="18" y="153" font-size="8" fill="#595959">+ last_sync_time + contract_status</text>
  </g>

  <g transform="translate(350, 270)">
    <rect x="0" y="0" width="280" height="220" rx="6" fill="#fff1f0" stroke="#ffa39e" stroke-width="1"/>
    <text x="12" y="20" font-size="11" font-weight="600" fill="#262626">外部系统 API（需跨团队协调）</text>
    <text x="12" y="40" font-size="8" fill="#820014" font-weight="600">阻塞项：</text>
    <text x="18" y="55" font-size="8" fill="#595959">SAP/ERP API — 服务 S2</text>
    <text x="18" y="67" font-size="8" fill="#595959">合同系统 API — 服务 S2/A1</text>
    <text x="18" y="79" font-size="8" fill="#595959">HR 系统 API — 服务 A1</text>
    <text x="12" y="97" font-size="8" fill="#ad6800" font-weight="600">可降级：</text>
    <text x="18" y="110" font-size="8" fill="#595959">企微 API — 服务 A1/S2/S3</text>
    <text x="18" y="122" font-size="8" fill="#595959">PLM API — 原服务 S1，已移除</text>
    <text x="12" y="140" font-size="8" fill="#389e0d" font-weight="600">基础设施：</text>
    <text x="18" y="153" font-size="8" fill="#595959">定时调度系统 — 阻塞 S2/A1</text>
    <text x="18" y="165" font-size="8" fill="#595959">消息队列 · 对象存储 — 可选</text>
  </g>

  <path d="M160,105 C160,115 160,120 160,128" stroke="#52c41a" stroke-width="1" fill="none" marker-end="url(#arrow-s2)" opacity="0.8"/>
  <path d="M160,105 C190,115 220,120 270,128" stroke="#52c41a" stroke-width="1" fill="none" marker-end="url(#arrow-s2)" opacity="0.8"/>
  <path d="M160,105 C210,120 260,130 320,135" stroke="#52c41a" stroke-width="1" fill="none" marker-end="url(#arrow-s2)" opacity="0.8"/>
  <path d="M160,105 C180,150 170,170 150,178" stroke="#52c41a" stroke-width="1" fill="none" marker-end="url(#arrow-s2)" opacity="0.8"/>
  <path d="M160,105 C220,150 240,170 260,178" stroke="#52c41a" stroke-width="1" fill="none" marker-end="url(#arrow-s2)" opacity="0.8"/>
  <path d="M160,105 C250,150 300,170 370,178" stroke="#52c41a" stroke-width="1" fill="none" marker-end="url(#arrow-s2)" opacity="0.8"/>
  <path d="M160,105 C280,150 360,170 480,178" stroke="#52c41a" stroke-width="1" fill="none" marker-end="url(#arrow-s2)" opacity="0.8"/>

  <path d="M340,105 C340,115 310,120 300,128" stroke="#f5222d" stroke-width="1" fill="none" marker-end="url(#arrow-s3)" opacity="0.8"/>
  <path d="M340,105 C330,115 300,120 270,135" stroke="#f5222d" stroke-width="1" fill="none" marker-end="url(#arrow-s3)" opacity="0.8"/>
  <path d="M340,105 C360,115 380,120 400,128" stroke="#f5222d" stroke-width="1" fill="none" marker-end="url(#arrow-s3)" opacity="0.8"/>
  <path d="M340,105 C300,150 280,170 260,178" stroke="#f5222d" stroke-width="1" fill="none" marker-end="url(#arrow-s3)" opacity="0.8"/>
  <path d="M340,105 C370,150 390,170 430,178" stroke="#f5222d" stroke-width="1" fill="none" marker-end="url(#arrow-s3)" opacity="0.8"/>
  <path d="M340,105 C400,150 440,170 480,178" stroke="#f5222d" stroke-width="1" fill="none" marker-end="url(#arrow-s3)" opacity="0.8"/>

  <path d="M520,105 C480,115 430,120 400,128" stroke="#fa8c16" stroke-width="1" fill="none" marker-end="url(#arrow-a1)" opacity="0.8"/>
  <path d="M520,105 C470,120 420,130 380,135" stroke="#fa8c16" stroke-width="1" fill="none" marker-end="url(#arrow-a1)" opacity="0.8"/>
  <path d="M520,105 C520,120 520,125 520,128" stroke="#fa8c16" stroke-width="1" fill="none" marker-end="url(#arrow-a1)" opacity="0.8"/>
  <path d="M520,105 C480,150 430,170 370,178" stroke="#fa8c16" stroke-width="1" fill="none" marker-end="url(#arrow-a1)" opacity="0.8"/>
  <path d="M520,105 C540,150 560,170 590,178" stroke="#fa8c16" stroke-width="1" fill="none" marker-end="url(#arrow-a1)" opacity="0.8"/>
  <path d="M520,105 C420,150 280,170 150,178" stroke="#fa8c16" stroke-width="1" fill="none" marker-end="url(#arrow-a1)" opacity="0.8"/>
  <path d="M520,105 C500,150 470,170 440,178" stroke="#fa8c16" stroke-width="1" fill="none" marker-end="url(#arrow-a1)" opacity="0.8"/>
  <path d="M520,105 C560,150 600,170 630,178" stroke="#fa8c16" stroke-width="1" fill="none" marker-end="url(#arrow-a1)" opacity="0.8"/>

  <path d="M100,175 C100,210 100,240 120,270" stroke="#8c8c8c" stroke-width="0.8" fill="none" marker-end="url(#arrow-cli)" stroke-dasharray="3,2"/>
  <path d="M210,175 C210,210 210,240 220,270" stroke="#8c8c8c" stroke-width="0.8" fill="none" marker-end="url(#arrow-cli)" stroke-dasharray="3,2"/>
  <path d="M320,175 C320,210 320,240 310,270" stroke="#8c8c8c" stroke-width="0.8" fill="none" marker-end="url(#arrow-cli)" stroke-dasharray="3,2"/>
  <path d="M430,175 C430,210 430,240 410,270" stroke="#8c8c8c" stroke-width="0.8" fill="none" marker-end="url(#arrow-cli)" stroke-dasharray="3,2"/>
  <path d="M540,175 C540,210 540,240 560,270" stroke="#8c8c8c" stroke-width="0.8" fill="none" marker-end="url(#arrow-cli)" stroke-dasharray="3,2"/>
  <path d="M150,235 C150,255 140,270 130,270" stroke="#8c8c8c" stroke-width="0.8" fill="none" marker-end="url(#arrow-cli)" stroke-dasharray="3,2"/>
  <path d="M260,235 C260,255 240,270 240,270" stroke="#8c8c8c" stroke-width="0.8" fill="none" marker-end="url(#arrow-cli)" stroke-dasharray="3,2"/>
  <path d="M370,235 C370,255 350,270 330,270" stroke="#8c8c8c" stroke-width="0.8" fill="none" marker-end="url(#arrow-cli)" stroke-dasharray="3,2"/>
  <path d="M480,235 C480,255 500,270 500,270" stroke="#8c8c8c" stroke-width="0.8" fill="none" marker-end="url(#arrow-cli)" stroke-dasharray="3,2"/>

  <g transform="translate(420, 500)">
    <rect x="0" y="0" width="250" height="18" rx="3" fill="#fafafa" stroke="#d9d9d9" stroke-width="0.5"/>
    <line x1="10" y1="9" x2="30" y2="9" stroke="#52c41a" stroke-width="1.5" marker-end="url(#arrow-s2)"/>
    <text x="33" y="12" font-size="8" fill="#595959">S2</text>
    <line x1="60" y1="9" x2="80" y2="9" stroke="#f5222d" stroke-width="1.5" marker-end="url(#arrow-s3)"/>
    <text x="83" y="12" font-size="8" fill="#595959">S3</text>
    <line x1="110" y1="9" x2="130" y2="9" stroke="#fa8c16" stroke-width="1.5" marker-end="url(#arrow-a1)"/>
    <text x="133" y="12" font-size="8" fill="#595959">A1</text>
    <line x1="160" y1="9" x2="180" y2="9" stroke="#8c8c8c" stroke-width="1" stroke-dasharray="3,2" marker-end="url(#arrow-cli)"/>
    <text x="183" y="12" font-size="8" fill="#595959">CLI→前置</text>
  </g>

  <text x="340" y="512" text-anchor="middle" font-size="8" fill="#8c8c8c">S1 已移除：原依赖的 Embedding、向量库、PLM API 不在本次实施范围内</text>
</svg>